<svg fill="#72E2AEFF" xmlns="http://www.w3.org/2000/svg">

    // 5-day weather icon
    <g id="5-day">
        <path fill="white"
              d="M8,0H3A3,3,0,0,0,0,3V8a3,3,0,0,0,3,3H8a3,3,0,0,0,3-3V3A3,3,0,0,0,8,0ZM9,8A1,1,0,0,1,8,9H3A1,1,0,0,1,2,8V3A1,1,0,0,1,3,2H8A1,1,0,0,1,9,3Z"/>
        <path fill="white"
              d="M21,0H16a3,3,0,0,0-3,3V8a3,3,0,0,0,3,3h5a3,3,0,0,0,3-3V3A3,3,0,0,0,21,0Zm1,8a1,1,0,0,1-1,1H16a1,1,0,0,1-1-1V3a1,1,0,0,1,1-1h5a1,1,0,0,1,1,1Z"/>
        <path fill="white"
              d="M8,13H3a3,3,0,0,0-3,3v5a3,3,0,0,0,3,3H8a3,3,0,0,0,3-3V16A3,3,0,0,0,8,13Zm1,8a1,1,0,0,1-1,1H3a1,1,0,0,1-1-1V16a1,1,0,0,1,1-1H8a1,1,0,0,1,1,1Z"/>
        <path fill="white"
              d="M21,13H16a3,3,0,0,0-3,3v5a3,3,0,0,0,3,3h5a3,3,0,0,0,3-3V16A3,3,0,0,0,21,13Zm1,8a1,1,0,0,1-1,1H16a1,1,0,0,1-1-1V16a1,1,0,0,1,1-1h5a1,1,0,0,1,1,1Z"/>
    </g>

    //hourly weather icon
    <path id="hourly" fill="white"
          d="M5,18v.184A2.993,2.993,0,0,0,6,24H18a2.993,2.993,0,0,0,1-5.816V18a7,7,0,0,0-3.413-6A7,7,0,0,0,19,6V5.816A2.993,2.993,0,0,0,18,0H6A2.993,2.993,0,0,0,5,5.816V6a7,7,0,0,0,3.413,6A7,7,0,0,0,5,18Zm13,4H6a1,1,0,0,1,0-2H18a1,1,0,0,1,0,2ZM6,2H18a1,1,0,0,1,0,2H6A1,1,0,0,1,6,2ZM7,6H17A5,5,0,0,1,7,6ZM17,18H7a5,5,0,0,1,10,0Z"/>

    //current weather icon
    <g id="current">
        <path fill="white"
              d="M19,0H5A5.006,5.006,0,0,0,0,5V19a5.006,5.006,0,0,0,5,5H19a5.006,5.006,0,0,0,5-5V5A5.006,5.006,0,0,0,19,0Zm3,19a3,3,0,0,1-3,3H5a3,3,0,0,1-3-3V5A3,3,0,0,1,5,2H19a3,3,0,0,1,3,3Z"/>
        <path fill="white" d="M7,10A3,3,0,1,0,4,7,3,3,0,0,0,7,10ZM7,6A1,1,0,1,1,6,7,1,1,0,0,1,7,6Z"/>
        <path fill="white"
              d="M16.707,10.293a.956.956,0,0,0-.74-.293,1.006,1.006,0,0,0-.72.341L12.217,13.8l-2.51-2.511a1,1,0,0,0-1.414,0l-4,4a1,1,0,1,0,1.414,1.414L9,13.414l1.9,1.9L8.247,18.341a1,1,0,0,0,1.506,1.318l3.218-3.678.006,0,.007-.011,3.065-3.5,2.244,2.244a1,1,0,0,0,1.414-1.414Z"/>
    </g>

    //max temp
    <g id="max" transform="translate(0.000000,512.000000) scale(0.100000,-0.100000)" fill="#000000" stroke="none">
        <path fill="white" d="M1645 4948 c-89 -16 -204 -80 -278 -153 -77 -76 -138 -190 -156 -289
-8 -40 -11 -472 -11 -1328 l0 -1268 -107 -107 c-187 -188 -276 -383 -290 -638
-14 -271 83 -522 276 -716 180 -180 386 -273 636 -286 275 -14 524 83 720 281
134 134 217 280 262 462 25 99 24 324 -1 424 -48 195 -124 328 -268 473 l-108
107 0 1268 c0 856 -3 1288 -11 1328 -6 32 -28 96 -50 141 -108 226 -359 349
-614 301z m174 -158 c172 -28 306 -165 331 -337 6 -42 10 -567 10 -1351 l0
-1284 28 -23 c15 -13 54 -46 88 -73 110 -90 211 -247 250 -387 25 -93 30 -286
9 -382 -55 -248 -225 -459 -453 -560 -198 -87 -446 -88 -644 0 -216 96 -382
293 -449 532 -21 76 -19 322 4 405 43 155 147 312 273 410 38 29 75 60 82 69
9 12 12 286 12 1295 0 783 4 1307 10 1349 24 168 160 309 322 336 29 5 55 9
58 10 3 0 34 -4 69 -9z"/>
        <path fill="#E74C3CFF" d="M1653 4620 c-49 -25 -99 -78 -119 -126 -12 -28 -14 -263 -14 -1397
l0 -1364 -81 -54 c-149 -98 -246 -218 -292 -364 -32 -100 -32 -290 0 -390 60
-189 204 -338 401 -413 61 -24 80 -26 212 -26 132 0 151 2 212 26 197 75 341
224 401 413 32 100 32 290 0 390 -46 146 -143 266 -292 364 l-81 53 -2 1378
-3 1378 -30 43 c-17 24 -50 57 -74 74 -37 26 -53 30 -119 33 -63 2 -85 -1
-119 -18z"/>
        <path fill="#E74C3CFF" d="M3617 4523 c-440 -497 -497 -566 -497 -603 0 -25 7 -43 23 -58 22
-20 33 -22 160 -22 l137 0 0 -418 0 -419 23 -21 c23 -21 30 -22 298 -22 275 0
276 0 297 23 22 23 22 26 22 440 l0 417 138 0 c132 0 140 1 160 23 14 15 22
36 22 59 0 32 -25 64 -261 334 -343 392 -334 384 -381 384 -35 0 -43 -7 -141
-117z"/>
    </g>

    //min temp
    <g id="min" transform="translate(0.000000,512.000000) scale(0.100000,-0.100000)"
       fill="#000000" stroke="none">
        <path fill="white" d="M1645 4948 c-89 -16 -204 -80 -278 -153 -77 -76 -138 -190 -156 -289
-8 -40 -11 -472 -11 -1328 l0 -1268 -107 -107 c-187 -188 -276 -383 -290 -638
-14 -271 83 -522 276 -716 180 -180 386 -273 636 -286 275 -14 524 83 720 281
134 134 217 280 262 462 25 99 24 324 -1 424 -48 195 -124 328 -268 473 l-108
107 0 1268 c0 856 -3 1288 -11 1328 -6 32 -28 96 -50 141 -108 226 -359 349
-614 301z m174 -158 c172 -28 306 -165 331 -337 6 -42 10 -567 10 -1351 l0
-1284 28 -23 c15 -13 54 -46 88 -73 110 -90 211 -247 250 -387 25 -93 30 -286
9 -382 -55 -248 -225 -459 -453 -560 -198 -87 -446 -88 -644 0 -216 96 -382
293 -449 532 -21 76 -19 322 4 405 43 155 147 312 273 410 38 29 75 60 82 69
9 12 12 286 12 1295 0 783 4 1307 10 1349 24 168 160 309 322 336 29 5 55 9
58 10 3 0 34 -4 69 -9z"/>
        <path fill="blue" d="M1653 4620 c-49 -25 -99 -78 -119 -126 -12 -28 -14 -263 -14 -1397
l0 -1364 -81 -54 c-149 -98 -246 -218 -292 -364 -32 -100 -32 -290 0 -390 60
-189 204 -338 401 -413 61 -24 80 -26 212 -26 132 0 151 2 212 26 197 75 341
224 401 413 32 100 32 290 0 390 -46 146 -143 266 -292 364 l-81 53 -2 1378
-3 1378 -30 43 c-17 24 -50 57 -74 74 -37 26 -53 30 -119 33 -63 2 -85 -1
-119 -18z"/>
        <path fill="blue" d="M3617 3477 c-440 497 -497 566 -497 603 0 25 7 43 23 58 22
  20 33 22 160 22 l137 0 0 418 0 419 23 21 c23 21 30 22 298 22 275 0
  276 0 297 -23 22 -23 22 -26 22 -440 l0 -417 138 0 c132 0 140 -1 160 -23 14 -15 22
  -36 22 -59 0 -32 -25 -64 -261 -334 -343 -392 -334 -384 -381 -384 -35 0 -43 7 -141
  117z"/>
    </g>

    //metric
    <g id="metric">
        <path fill="white"
              d="M15,21c-3.3,0-6-2.7-6-6V9c0-3.3,2.7-6,6-6s6,2.7,6,6c0,0.6-0.4,1-1,1s-1-0.4-1-1c0-2.2-1.8-4-4-4s-4,1.8-4,4v6    c0,2.2,1.8,4,4,4s4-1.8,4-4c0-0.6,0.4-1,1-1s1,0.4,1,1C21,18.3,18.3,21,15,21z"/>
        <path fill="white"
              d="M5.5,8C4.1,8,3,6.9,3,5.5S4.1,3,5.5,3S8,4.1,8,5.5S6.9,8,5.5,8z M5.5,5C5.2,5,5,5.2,5,5.5S5.2,6,5.5,6S6,5.8,6,5.5    S5.8,5,5.5,5z"/>
    </g>

    //imperial
    <g id="imperial">
        <g>
            <path fill="white"
                  d="M5.5,8C4.1,8,3,6.9,3,5.5S4.1,3,5.5,3S8,4.1,8,5.5S6.9,8,5.5,8z M5.5,5C5.2,5,5,5.2,5,5.5S5.2,6,5.5,6S6,5.8,6,5.5    S5.8,5,5.5,5z"/>
        </g>
        <g>
            <path fill="white"
                  d="M11,21c-0.6,0-1-0.4-1-1V6c0-1.1,0.9-2,2-2h7c0.6,0,1,0.4,1,1s-0.4,1-1,1h-7v14C12,20.6,11.6,21,11,21z"/>
        </g>
        <g>
            <path fill="white" d="M19,13h-8c-0.6,0-1-0.4-1-1s0.4-1,1-1h8c0.6,0,1,0.4,1,1S19.6,13,19,13z"/>
        </g>
        <g>
            <path fill="white"
                  d="M11,21c-0.6,0-1-0.4-1-1V6c0-1.1,0.9-2,2-2h7c0.6,0,1,0.4,1,1s-0.4,1-1,1h-7v14C12,20.6,11.6,21,11,21z"/>
        </g>
        <g>
            <path fill="white" d="M19,13h-8c-0.6,0-1-0.4-1-1s0.4-1,1-1h8c0.6,0,1,0.4,1,1S19.6,13,19,13z"/>
        </g>
    </g>

    //weather details
    <path id="details" fill="white"
          d="M19.989,9.349C20,9.232,20,9.116,20,9A5.989,5.989,0,0,0,8.783,6.067,4.608,4.608,0,0,0,8,6a5.006,5.006,0,0,0-5,5c0,.136.007.272.02.411A5,5,0,0,0,5,21H18A5.994,5.994,0,0,0,19.989,9.349ZM18,19H5a3,3,0,0,1-.624-5.933,1,1,0,0,0,.755-1.251A2.96,2.96,0,0,1,9,8.187a1,1,0,0,0,1.27-.59A3.991,3.991,0,0,1,18,9a3.952,3.952,0,0,1-.1.871,1,1,0,0,0,.8,1.2A3.994,3.994,0,0,1,18,19Z"/>

    //location
    <g id="location">
        <path fill="white"
              d="M2,10c0,8.491,9.126,13.658,9.514,13.874a1,1,0,0,0,.972,0C12.874,23.658,22,18.491,22,10A10,10,0,0,0,2,10ZM12,2a8.009,8.009,0,0,1,8,8c0,6.274-6.2,10.68-8,11.83C10.2,20.68,4,16.274,4,10A8.009,8.009,0,0,1,12,2Z"/>
        <path fill="white" d="M12,15a5,5,0,1,0-5-5A5.006,5.006,0,0,0,12,15Zm0-8a3,3,0,1,1-3,3A3,3,0,0,1,12,7Z"/>
    </g>

    //feels like
    <g id="feels">
        <path fill="#fff"
              d="M26,30H22a2.0059,2.0059,0,0,1-2-2V21a2.0059,2.0059,0,0,1-2-2V13a2.9465,2.9465,0,0,1,3-3h6a2.9465,2.9465,0,0,1,3,3v6a2.0059,2.0059,0,0,1-2,2v7A2.0059,2.0059,0,0,1,26,30ZM21,12a.9448.9448,0,0,0-1,1v6h2v9h4V19h2V13a.9448.9448,0,0,0-1-1Z"
              transform="translate(0 0)"/>
        <path fill="#fff"
              d="M24,9a4,4,0,1,1,4-4h0A4.0118,4.0118,0,0,1,24,9Zm0-6a2,2,0,1,0,2,2h0a2.0059,2.0059,0,0,0-2-2Z"
              transform="translate(0 0)"/>
        <path fill="#fff" d="M10,20.1839V12H8v8.1839a3,3,0,1,0,2,0Z" transform="translate(0 0)"/>
        <path fill="#fff"
              d="M9,30A6.9931,6.9931,0,0,1,4,18.1108V7A5,5,0,0,1,14,7V18.1108A6.9931,6.9931,0,0,1,9,30ZM9,4A3.0033,3.0033,0,0,0,6,7V18.9834l-.332.2983a5,5,0,1,0,6.664,0L12,18.9834V7A3.0033,3.0033,0,0,0,9,4Z"
              transform="translate(0 0)"/>
        />
    </g>

    //humidity
    <g id="humidity">
        <path fill="white"
              d="M12,24A10,10,0,0,1,4.929,6.929L12,.013l7.063,6.908a10.014,10.014,0,0,1,.008,14.15h0A9.936,9.936,0,0,1,12,24ZM12,2.811,6.335,8.351a8,8,0,1,0,11.322-.008ZM9,10a1,1,0,1,0,1,1A1,1,0,0,0,9,10Zm6,6a1,1,0,1,0,1,1A1,1,0,0,0,15,16ZM8.434,18h2.332l4.8-8H13.234Z"/>
    </g>

    //wind speed
    <g id="wind">
        <path fill="#fff"
              d="M24,8.686L4.098,4.421c.551-.459,.902-1.15,.902-1.921C5,1.122,3.878,0,2.5,0S0,1.122,0,2.5c0,1.207,.86,2.217,2,2.45V24h1v-5.086l21-4v-6.228Zm-13-1.763l3,.643V15.801l-3,.571V6.923Zm-1,9.64l-3,.571V6.065l3,.643v9.854ZM15,7.78l3,.643v6.616l-3,.571V7.78ZM1,2.5c0-.827,.673-1.5,1.5-1.5s1.5,.673,1.5,1.5-.673,1.5-1.5,1.5-1.5-.673-1.5-1.5Zm2,2.708l3,.643v11.473l-3,.571V5.208ZM23,14.086l-4,.762v-6.211l4,.857v4.592Z"/>
    </g>
    //pressure
    <g id="pressure" transform="translate(0.000000,512.000000) scale(0.100000,-0.100000)"
       fill="#fff" stroke="none">
        <path d="M791 4724 c-20 -26 -21 -37 -21 -405 l0 -379 -114 0 c-112 0 -115 -1
-135 -26 -43 -55 -42 -57 271 -371 274 -274 295 -293 328 -293 33 0 54 19 328
293 313 314 314 316 271 371 -20 25 -23 26 -135 26 l-114 0 0 379 c0 368 -1
379 -21 405 l-20 26 -309 0 -309 0 -20 -26z"/>
        <path d="M3674 4729 c-18 -20 -19 -45 -24 -403 l-5 -381 -112 -3 c-107 -3
-113 -4 -133 -29 -43 -54 -41 -56 274 -372 271 -271 296 -294 327 -293 30 1
64 32 326 294 314 315 316 317 272 372 -20 25 -23 26 -135 26 l-114 0 0 379
c0 368 -1 379 -21 405 l-20 26 -308 0 c-300 0 -308 -1 -327 -21z"/>
        <path d="M2231 4004 c-20 -26 -21 -37 -21 -405 l0 -379 -114 0 c-112 0 -115
-1 -135 -26 -43 -55 -42 -57 271 -371 274 -274 295 -293 328 -293 33 0 54 19
328 293 313 314 314 316 271 371 -20 25 -23 26 -135 26 l-114 0 0 379 c0 368
-1 379 -21 405 l-20 26 -309 0 -309 0 -20 -26z"/>
        <path d="M345 2655 c-40 -39 -33 -71 28 -129 171 -166 526 -371 844 -490 246
-91 555 -165 848 -203 178 -23 776 -26 950 -5 598 73 1089 244 1510 525 113
75 213 155 249 198 32 38 30 82 -5 112 -42 34 -77 22 -174 -59 -133 -112 -280
-206 -460 -294 -682 -334 -1583 -427 -2425 -249 -462 98 -888 293 -1185 543
-102 86 -136 95 -180 51z"/>
        <path d="M345 1935 c-40 -39 -33 -71 28 -129 107 -104 325 -250 513 -344 357
-179 735 -291 1179 -349 201 -26 788 -26 990 0 429 55 793 161 1140 332 239
117 539 320 591 400 20 31 11 79 -19 100 -44 31 -76 19 -172 -61 -264 -222
-627 -400 -1028 -504 -347 -90 -627 -124 -1007 -124 -381 1 -641 32 -985 119
-413 104 -781 283 -1050 509 -102 86 -136 95 -180 51z"/>
        <path d="M341 1214 c-34 -44 -27 -72 32 -128 103 -100 287 -225 480 -326 348
-183 728 -299 1177 -361 187 -26 653 -37 864 -20 504 41 965 168 1366 377 204
107 459 284 520 361 40 52 3 123 -64 123 -24 -1 -51 -18 -121 -76 -133 -112
-280 -206 -460 -294 -340 -167 -705 -266 -1158 -317 -207 -23 -627 -23 -832 0
-684 77 -1226 281 -1620 611 -76 64 -96 75 -127 76 -28 0 -41 -6 -57 -26z"/>
    </g>

    //close
    <g id="close">
        <path fill="white"
              d="M12,0A12,12,0,1,0,24,12,12.013,12.013,0,0,0,12,0Zm0,22A10,10,0,1,1,22,12,10.011,10.011,0,0,1,12,22Z"/>
        <path fill="white"
              d="M16.707,7.293a1,1,0,0,0-1.414,0L12,10.586,8.707,7.293A1,1,0,1,0,7.293,8.707L10.586,12,7.293,15.293a1,1,0,1,0,1.414,1.414L12,13.414l3.293,3.293a1,1,0,0,0,1.414-1.414L13.414,12l3.293-3.293A1,1,0,0,0,16.707,7.293Z"/>
    </g>

    //settings
    <g id="settings">
        <path fill="white"
              d="M22.393,8.859l-.971-.194a9.99,9.99,0,0,0-.4-.971l.548-.821a2.008,2.008,0,0,0-.25-2.524L19.65,2.68a2.006,2.006,0,0,0-2.523-.25l-.821.548a9.99,9.99,0,0,0-.971-.4l-.194-.97A2,2,0,0,0,13.18,0H10.82A2,2,0,0,0,8.859,1.607l-.194.971a9.99,9.99,0,0,0-.971.4L6.873,2.43a2.007,2.007,0,0,0-2.524.25L2.68,4.35a2.007,2.007,0,0,0-.25,2.523l.548.821a9.99,9.99,0,0,0-.4.971l-.97.194A2,2,0,0,0,0,10.82v2.36a2,2,0,0,0,1.607,1.961l.971.194a9.99,9.99,0,0,0,.4.971l-.548.821a2.008,2.008,0,0,0,.25,2.524L4.35,21.32a2.009,2.009,0,0,0,2.523.25l.821-.548a9.99,9.99,0,0,0,.971.4l.194.97A2,2,0,0,0,10.82,24h2.36a2,2,0,0,0,1.961-1.607l.194-.971a9.99,9.99,0,0,0,.971-.4l.821.548a2.007,2.007,0,0,0,2.524-.25l1.669-1.67a2.007,2.007,0,0,0,.25-2.523l-.548-.821a9.99,9.99,0,0,0,.4-.971l.97-.194A2,2,0,0,0,24,13.18V10.82A2,2,0,0,0,22.393,8.859ZM22,13.18l-1.548.31a1,1,0,0,0-.765.706,8,8,0,0,1-.7,1.689,1,1,0,0,0,.041,1.041l.874,1.311-1.67,1.669-1.31-.874a1,1,0,0,0-1.041-.041,8,8,0,0,1-1.689.7,1,1,0,0,0-.706.765L13.18,22H10.82l-.31-1.548a1,1,0,0,0-.706-.765,8,8,0,0,1-1.689-.7,1,1,0,0,0-1.041.041l-1.311.874-1.669-1.67.874-1.31a1,1,0,0,0,.041-1.041,8,8,0,0,1-.7-1.689,1,1,0,0,0-.765-.706L2,13.18V10.82l1.548-.31A1,1,0,0,0,4.313,9.8a8,8,0,0,1,.7-1.689,1,1,0,0,0-.041-1.041L4.094,5.763l1.67-1.669,1.31.874a1,1,0,0,0,1.041.041,8,8,0,0,1,1.689-.7,1,1,0,0,0,.706-.765L10.82,2h2.36l.31,1.548a1,1,0,0,0,.706.765,8,8,0,0,1,1.689.7,1,1,0,0,0,1.041-.041l1.311-.874,1.669,1.67-.874,1.31a1,1,0,0,0-.041,1.041,8,8,0,0,1,.7,1.689,1,1,0,0,0,.765.706L22,10.82Z"/>
        <path fill="white" d="M13,7a1,1,0,0,0-1-1,6.006,6.006,0,0,0-6,6,1,1,0,0,0,2,0,4,4,0,0,1,4-4A1,1,0,0,0,13,7Z"/>
        <path fill="white" d="M17,11a1,1,0,0,0-1,1,4,4,0,0,1-4,4,1,1,0,0,0,0,2,6.006,6.006,0,0,0,6-6A1,1,0,0,0,17,11Z"/>
    </g>

    //ru
    <g id="ru" transform="translate(0.000000,512.000000) scale(0.100000,-0.100000)"
       fill="#fff" stroke="none">
        <path d="M1960 3098 c-35 -14 -73 -39 -106 -73 l-53 -52 -8 61 -8 61 -142 3
-143 3 0 -801 0 -800 155 0 155 0 0 275 c0 151 2 275 4 275 2 0 19 -15 39 -33
61 -58 120 -80 229 -85 146 -6 226 25 321 127 56 60 103 155 123 250 18 86 18
316 0 401 -44 206 -144 340 -292 390 -79 27 -200 26 -274 -2z m145 -241 c47
-27 99 -120 115 -206 14 -75 12 -226 -3 -292 -32 -133 -93 -189 -207 -189 -77
0 -134 23 -173 69 l-27 33 0 246 c0 246 0 248 24 283 52 77 186 104 271 56z"/>
        <path d="M2615 3083 c4 -10 96 -269 205 -577 l199 -558 -25 -62 c-50 -120 -96
-156 -198 -156 l-54 0 -11 -62 c-5 -35 -13 -86 -17 -114 l-6 -51 79 -13 c94
-14 189 -3 258 30 55 27 121 99 164 179 24 46 470 1282 498 1384 5 16 -7 17
-160 17 l-166 0 -19 -62 c-11 -35 -59 -193 -107 -353 -48 -159 -91 -296 -95
-304 -5 -9 -9 -5 -14 15 -3 16 -50 181 -103 367 l-98 337 -168 0 c-157 0 -169
-1 -162 -17z"/>
    </g>

    //en
    <g id="en" transform="translate(0.000000,512.000000) scale(0.100000,-0.100000)"
       fill="#fff" stroke="none">
        <path d="M1830 3199 c-87 -14 -190 -70 -251 -137 -99 -106 -141 -218 -153
-407 -21 -310 126 -539 386 -600 160 -38 398 -1 533 83 22 14 42 26 44 28 3 3
-66 173 -75 183 -1 2 -37 -11 -79 -28 -151 -63 -317 -63 -403 -1 -46 33 -89
114 -94 175 l-3 40 339 3 339 2 -6 143 c-6 158 -19 215 -67 306 -91 169 -279
247 -510 210z m200 -247 c44 -24 73 -81 78 -154 l4 -58 -187 0 -187 0 6 38
c12 68 58 145 101 169 51 29 136 31 185 5z"/>
        <path d="M3117 3200 c-79 -20 -155 -70 -208 -136 l-27 -35 -7 68 c-3 37 -8 74
-10 81 -3 9 -41 12 -145 12 l-140 0 0 -565 0 -565 155 0 155 0 0 410 0 411 25
25 c63 63 204 86 272 44 68 -41 68 -41 71 -487 l3 -403 155 0 156 0 -5 418
c-4 452 -6 467 -63 572 -52 95 -148 150 -273 156 -42 2 -93 -1 -114 -6z"/>
    </g>

    //date
    <g id="date">
        <path fill="white"
              d="M20,2H19V1a1,1,0,0,0-2,0V2H7V1A1,1,0,0,0,5,1V2H4A4,4,0,0,0,0,6V20a4,4,0,0,0,4,4H20a4,4,0,0,0,4-4V6A4,4,0,0,0,20,2Zm2,18a2,2,0,0,1-2,2H4a2,2,0,0,1-2-2V6A2,2,0,0,1,4,4H5V5A1,1,0,0,0,7,5V4H17V5a1,1,0,0,0,2,0V4h1a2,2,0,0,1,2,2Z"/>
        <path fill="white" d="M19,7H5A1,1,0,0,0,5,9H19a1,1,0,0,0,0-2Z"/>
        <path fill="white" d="M7,12H5a1,1,0,0,0,0,2H7a1,1,0,0,0,0-2Z"/>
        <path fill="white" d="M7,17H5a1,1,0,0,0,0,2H7a1,1,0,0,0,0-2Z"/>
        <path fill="white" d="M13,12H11a1,1,0,0,0,0,2h2a1,1,0,0,0,0-2Z"/>
        <path fill="white" d="M13,17H11a1,1,0,0,0,0,2h2a1,1,0,0,0,0-2Z"/>
        <path fill="white" d="M19,12H17a1,1,0,0,0,0,2h2a1,1,0,0,0,0-2Z"/>
        <path fill="white" d="M19,17H17a1,1,0,0,0,0,2h2a1,1,0,0,0,0-2Z"/>
    </g>

    //clock
    <g id="clock">
        <path fill="white" d="M16,31A15,15,0,1,1,31,16,15,15,0,0,1,16,31ZM16,3A13,13,0,1,0,29,16,13,13,0,0,0,16,3Z"/>
        <path fill="white" d="M20.24,21.66l-4.95-4.95A1,1,0,0,1,15,16V8h2v7.59l4.66,4.65Z"/>
    </g>
</svg>