<?xml version="1.0" standalone="no"?>
<!DOCTYPE svg PUBLIC "-//W3C//DTD SVG 20010904//EN"
 "http://www.w3.org/TR/2001/REC-SVG-20010904/DTD/svg10.dtd">
<svg version="1.0" xmlns="http://www.w3.org/2000/svg"
 width="512.000000pt" height="512.000000pt" viewBox="0 0 512.000000 512.000000"
 preserveAspectRatio="xMidYMid meet">

<g transform="translate(0.000000,512.000000) scale(0.100000,-0.100000)"
fill="#fff" stroke="none">
<path d="M745 4186 c-63 -29 -112 -77 -139 -136 -21 -45 -21 -46 -21 -1470 l0
-1425 24 -45 c32 -61 67 -97 126 -128 l50 -27 670 0 670 0 50 27 c63 33 98 70
126 132 26 60 28 154 5 209 -22 50 -80 114 -130 140 -40 22 -49 22 -543 25
l-503 3 0 434 0 435 448 0 447 0 50 24 c162 75 207 281 91 413 -22 25 -63 56
-91 69 l-50 24 -447 0 -448 0 0 390 0 389 503 3 c559 3 535 1 617 74 115 104
120 275 11 384 -83 83 -54 80 -805 80 l-661 0 -50 -24z"/>
<path d="M3053 3247 c-61 -23 -118 -72 -148 -128 l-30 -54 -3 -959 c-3 -1088
-7 -1030 75 -1117 55 -59 115 -84 198 -83 103 2 190 59 237 152 l23 47 5 716
5 715 30 60 c53 102 148 150 285 142 123 -8 200 -58 247 -164 17 -36 18 -96
23 -754 l5 -715 27 -51 c51 -97 131 -147 238 -148 81 0 142 27 199 89 74 81
72 57 68 897 -4 830 -1 803 -77 963 -89 190 -237 317 -440 375 -106 31 -283
38 -382 16 -69 -15 -176 -61 -239 -102 -26 -17 -27 -17 -64 25 -21 23 -57 52
-79 63 -49 25 -157 33 -203 15z"/>
</g>
</svg>
