<?xml version="1.0" standalone="no"?>
<!DOCTYPE svg PUBLIC "-//W3C//DTD SVG 20010904//EN"
 "http://www.w3.org/TR/2001/REC-SVG-20010904/DTD/svg10.dtd">
<svg version="1.0" xmlns="http://www.w3.org/2000/svg"
 width="512.000000pt" height="512.000000pt" viewBox="0 0 512.000000 512.000000"
 preserveAspectRatio="xMidYMid meet">

<g transform="translate(0.000000,512.000000) scale(0.100000,-0.100000)"
fill="#000000" stroke="none">
<path d="M1745 4295 c-50 -18 -100 -71 -114 -122 -8 -26 -11 -454 -11 -1360
l0 -1323 -69 -67 c-85 -84 -113 -150 -114 -263 -2 -132 54 -237 163 -312 188
-129 444 -58 543 150 74 157 26 357 -109 454 l-44 31 -2 1352 -3 1351 -27 41
c-44 67 -136 97 -213 68z"/>
</g>
</svg>
