<?xml version="1.0" standalone="no"?>
<!DOCTYPE svg PUBLIC "-//W3C//DTD SVG 20010904//EN"
 "http://www.w3.org/TR/2001/REC-SVG-20010904/DTD/svg10.dtd">
<svg version="1.0" xmlns="http://www.w3.org/2000/svg"
 width="512.000000pt" height="512.000000pt" viewBox="0 0 512.000000 512.000000"
 preserveAspectRatio="xMidYMid meet">

<g transform="translate(0.000000,512.000000) scale(0.100000,-0.100000)"
fill="#000000" stroke="none">
<path fill="#fff" d="M1645 4948 c-89 -16 -204 -80 -278 -153 -77 -76 -138 -190 -156 -289
-8 -40 -11 -472 -11 -1328 l0 -1268 -107 -107 c-187 -188 -276 -383 -290 -638
-14 -271 83 -522 276 -716 180 -180 386 -273 636 -286 275 -14 524 83 720 281
134 134 217 280 262 462 25 99 24 324 -1 424 -48 195 -124 328 -268 473 l-108
107 0 1268 c0 856 -3 1288 -11 1328 -6 32 -28 96 -50 141 -108 226 -359 349
-614 301z m174 -158 c172 -28 306 -165 331 -337 6 -42 10 -567 10 -1351 l0
-1284 28 -23 c15 -13 54 -46 88 -73 110 -90 211 -247 250 -387 25 -93 30 -286
9 -382 -74 -338 -352 -588 -690 -622 -294 -30 -580 103 -739 343 -105 159
-141 288 -133 479 2 67 12 149 21 182 42 150 148 308 272 405 38 29 75 60 82
69 9 12 12 286 12 1295 0 783 4 1307 10 1349 24 168 160 309 322 336 29 5 55
9 58 10 3 0 34 -4 69 -9z"/>
<path fill="blue" d="M1653 4620 c-49 -25 -99 -78 -119 -126 -12 -28 -14 -263 -14 -1397
l0 -1364 -81 -54 c-149 -98 -246 -218 -292 -364 -32 -100 -32 -290 0 -390 60
-189 204 -338 401 -413 61 -24 80 -26 212 -26 132 0 151 2 212 26 197 75 341
224 401 413 32 100 32 290 0 390 -46 146 -143 266 -292 364 l-81 53 -2 1378
-3 1378 -30 43 c-17 24 -50 57 -74 74 -37 26 -53 30 -119 33 -63 2 -85 -1
-119 -18z m158 -169 l29 -29 0 -1380 c0 -759 3 -1388 6 -1397 4 -9 57 -50 119
-90 129 -85 174 -131 221 -230 139 -290 -39 -624 -362 -676 -194 -31 -403 81
-489 262 -66 141 -66 277 -1 414 47 98 91 145 221 230 62 40 115 81 119 90 3
9 6 638 6 1397 l0 1380 29 29 c16 16 39 29 51 29 12 0 35 -13 51 -29z"/>
<path fill="#fff" d="M3625 4954 c-167 -26 -282 -62 -418 -132 -317 -162 -546 -464 -623
-822 -14 -62 -18 -127 -18 -240 0 -113 4 -178 18 -240 92 -425 398 -768 803
-899 138 -44 215 -56 373 -56 83 0 175 6 215 14 495 98 868 471 966 966 8 40
14 132 14 215 0 157 -12 236 -56 372 -58 179 -155 335 -293 474 -170 170 -369
278 -608 330 -71 15 -312 27 -373 18z m335 -180 c254 -45 505 -211 657 -435
41 -60 106 -191 127 -254 68 -213 64 -476 -9 -672 -98 -260 -278 -460 -520
-578 -130 -64 -226 -92 -356 -104 -289 -27 -557 60 -783 253 -147 126 -277
341 -321 530 -37 157 -36 354 0 498 62 243 230 478 435 610 239 155 482 202
770 152z"/>
<path fill="blue" d="M3462 4617 c-22 -23 -22 -26 -22 -440 l0 -417 -138 0 c-132 0 -140
-1 -160 -23 -14 -15 -22 -36 -22 -59 0 -32 25 -64 261 -334 341 -390 335 -384
379 -384 44 0 38 -6 379 384 240 275 261 302 261 336 0 25 -7 43 -23 58 -22
20 -33 22 -160 22 l-137 0 0 418 0 419 -23 21 c-23 21 -30 22 -298 22 -275 0
-276 0 -297 -23z m458 -552 l0 -416 25 -24 c22 -23 32 -25 110 -25 l86 0 -187
-212 c-102 -117 -190 -213 -194 -213 -4 0 -92 96 -194 213 l-187 212 86 0 c78
0 88 2 110 25 l25 24 0 416 0 415 160 0 160 0 0 -415z"/>
</g>
</svg>
