<?xml version="1.0" standalone="no"?>
<!DOCTYPE svg PUBLIC "-//W3C//DTD SVG 20010904//EN"
 "http://www.w3.org/TR/2001/REC-SVG-20010904/DTD/svg10.dtd">
<svg version="1.0" xmlns="http://www.w3.org/2000/svg"
 width="512.000000pt" height="512.000000pt" viewBox="0 0 512.000000 512.000000"
 preserveAspectRatio="xMidYMid meet">

<g transform="translate(0.000000,512.000000) scale(0.100000,-0.100000)"
fill="#fff" stroke="none">
<path d="M791 4724 c-20 -26 -21 -37 -21 -405 l0 -379 -114 0 c-112 0 -115 -1
-135 -26 -43 -55 -42 -57 271 -371 274 -274 295 -293 328 -293 33 0 54 19 328
293 313 314 314 316 271 371 -20 25 -23 26 -135 26 l-114 0 0 379 c0 368 -1
379 -21 405 l-20 26 -309 0 -309 0 -20 -26z"/>
<path d="M3674 4729 c-18 -20 -19 -45 -24 -403 l-5 -381 -112 -3 c-107 -3
-113 -4 -133 -29 -43 -54 -41 -56 274 -372 271 -271 296 -294 327 -293 30 1
64 32 326 294 314 315 316 317 272 372 -20 25 -23 26 -135 26 l-114 0 0 379
c0 368 -1 379 -21 405 l-20 26 -308 0 c-300 0 -308 -1 -327 -21z"/>
<path d="M2231 4004 c-20 -26 -21 -37 -21 -405 l0 -379 -114 0 c-112 0 -115
-1 -135 -26 -43 -55 -42 -57 271 -371 274 -274 295 -293 328 -293 33 0 54 19
328 293 313 314 314 316 271 371 -20 25 -23 26 -135 26 l-114 0 0 379 c0 368
-1 379 -21 405 l-20 26 -309 0 -309 0 -20 -26z"/>
<path d="M345 2655 c-40 -39 -33 -71 28 -129 171 -166 526 -371 844 -490 246
-91 555 -165 848 -203 178 -23 776 -26 950 -5 598 73 1089 244 1510 525 113
75 213 155 249 198 32 38 30 82 -5 112 -42 34 -77 22 -174 -59 -133 -112 -280
-206 -460 -294 -682 -334 -1583 -427 -2425 -249 -462 98 -888 293 -1185 543
-102 86 -136 95 -180 51z"/>
<path d="M345 1935 c-40 -39 -33 -71 28 -129 107 -104 325 -250 513 -344 357
-179 735 -291 1179 -349 201 -26 788 -26 990 0 429 55 793 161 1140 332 239
117 539 320 591 400 20 31 11 79 -19 100 -44 31 -76 19 -172 -61 -264 -222
-627 -400 -1028 -504 -347 -90 -627 -124 -1007 -124 -381 1 -641 32 -985 119
-413 104 -781 283 -1050 509 -102 86 -136 95 -180 51z"/>
<path d="M341 1214 c-34 -44 -27 -72 32 -128 103 -100 287 -225 480 -326 348
-183 728 -299 1177 -361 187 -26 653 -37 864 -20 504 41 965 168 1366 377 204
107 459 284 520 361 40 52 3 123 -64 123 -24 -1 -51 -18 -121 -76 -133 -112
-280 -206 -460 -294 -340 -167 -705 -266 -1158 -317 -207 -23 -627 -23 -832 0
-684 77 -1226 281 -1620 611 -76 64 -96 75 -127 76 -28 0 -41 -6 -57 -26z"/>
</g>
</svg>
