<?xml version="1.0" standalone="no"?>
<!DOCTYPE svg PUBLIC "-//W3C//DTD SVG 20010904//EN"
 "http://www.w3.org/TR/2001/REC-SVG-20010904/DTD/svg10.dtd">
<svg version="1.0" xmlns="http://www.w3.org/2000/svg"
 width="512.000000pt" height="512.000000pt" viewBox="0 0 512.000000 512.000000"
 preserveAspectRatio="xMidYMid meet">

<g transform="translate(0.000000,512.000000) scale(0.100000,-0.100000)"
fill="#fff" stroke="none">
<path d="M778 3906 c-82 -29 -126 -78 -152 -165 -14 -49 -16 -178 -16 -1176 0
-1217 -1 -1189 55 -1273 13 -20 41 -48 62 -62 32 -22 47 -25 124 -25 81 0 90
2 131 30 56 40 95 112 108 201 5 38 10 269 10 513 l0 444 148 -6 c203 -7 269
-33 372 -143 80 -86 130 -168 335 -549 201 -375 240 -432 325 -475 51 -26 149
-27 206 -1 91 41 145 146 125 240 -40 186 -235 556 -406 771 -58 72 -159 169
-205 197 -16 9 -30 20 -30 23 0 3 30 14 68 24 37 11 112 42 166 69 184 92 300
235 346 430 28 114 27 301 0 417 -69 285 -273 471 -565 516 -128 20 -1152 19
-1207 0z m1037 -411 c175 -38 278 -189 261 -384 -11 -128 -65 -215 -167 -267
-99 -50 -151 -56 -491 -61 l-318 -5 0 373 0 372 323 -6 c232 -5 341 -11 392
-22z"/>
<path d="M3085 3221 c-75 -19 -112 -51 -147 -126 l-23 -50 0 -650 c0 -734 1
-747 75 -901 86 -179 279 -294 493 -294 222 0 409 92 552 270 l50 62 6 -74 c8
-89 21 -133 55 -179 39 -54 89 -79 157 -79 67 0 102 15 145 64 63 72 62 57 62
946 0 912 3 878 -74 955 -112 112 -294 65 -351 -91 -17 -44 -19 -102 -25 -584
-8 -565 -10 -594 -57 -686 -38 -71 -109 -140 -185 -179 -63 -31 -79 -35 -150
-35 -122 0 -192 41 -244 142 -55 107 -56 129 -64 738 -5 439 -9 574 -20 603
-23 64 -84 124 -143 142 -55 16 -66 17 -112 6z"/>
</g>
</svg>
